<svg id="Capa_1" data-name="Capa 1" xmlns="http://www.w3.org/2000/svg" viewBox="0 0 80 80"><defs><style>.cls-1{fill:#e6007e;}.cls-2{fill:#390099;}</style></defs><path class="cls-1" d="M68.79,70.49,49.4,12.33A1.93,1.93,0,0,0,47,11.1a2,2,0,0,0-1.23,2.45L64.27,69.16H54.54a7.72,7.72,0,0,1-7.34-5.3L39.71,41.41A1.94,1.94,0,1,0,36,42.63l7.48,22.45a11.63,11.63,0,0,0,11,8H67a1.95,1.95,0,0,0,1.84-2.55Z"/><path class="cls-2" d="M49.14,11.81A1.92,1.92,0,0,0,47.57,11H28.18a2,2,0,0,0-1.84,1.33L7,70.49a1.9,1.9,0,0,0,.27,1.74A1.92,1.92,0,0,0,8.79,73h12.4a11.63,11.63,0,0,0,11-8L49.4,13.56A1.94,1.94,0,0,0,49.14,11.81ZM28.55,63.86a7.75,7.75,0,0,1-7.36,5.3H11.48L29.57,14.88H44.88Z"/></svg>