<svg id="Capa_1" data-name="Capa 1" xmlns="http://www.w3.org/2000/svg" viewBox="0 0 80 80"><defs><style>.cls-1{fill:#390099;}.cls-2{fill:#e6007e;}</style></defs><path class="cls-1" d="M58.44,50.57,55.31,53.7,50,48.3a21.63,21.63,0,0,0,2.22-24.59L57,18.9v4.72h3.66v-11h-11v3.66h4.72l-4.33,4.33a21.68,21.68,0,1,0-2.69,30.24l5.34,5.4-3.14,3.14L63.15,73,72,64.13Zm-25.1,1.86A18,18,0,1,1,47.48,23.25l-3.32,3.32L41.53,29.2h0l-5.35,5.35L30.57,29l-6.82,6.82a9.6,9.6,0,0,0,1.37,3.77,0,0,0,0,0,0,0l5.44-5.44,5.6,5.6L42.94,33h0l3-3,3.55-3.54a18,18,0,0,1-16.15,26Zm21.41,7,3.69-3.69,8.4,8.39-3.69,3.69ZM43,34.41a9.71,9.71,0,0,1-9.7,9.7A10.69,10.69,0,0,1,32.07,44a9.07,9.07,0,0,0,1.28.09,9.69,9.69,0,0,0,9.7-9.69c0-.25,0-.5,0-.74C43,33.93,43,34.17,43,34.41Z"/><path class="cls-1" d="M46.7,34.41a13.36,13.36,0,1,1-2.54-7.84L41.53,29.2a9.71,9.71,0,0,0-17.8,6.6l0,0a9.6,9.6,0,0,0,1.37,3.77,0,0,0,0,0,0,0h0a2.75,2.75,0,0,0,.19.28,3.28,3.28,0,0,0,.27.38l.29.36a6.77,6.77,0,0,0,.63.69,7.38,7.38,0,0,0,1,.9,9.93,9.93,0,0,0,2,1.18l.42.16.29.11a8.22,8.22,0,0,0,1.11.29h.06a4.09,4.09,0,0,0,.61.1,9.07,9.07,0,0,0,1.28.09,9.69,9.69,0,0,0,9.7-9.69c0-.25,0-.5,0-.74v0c0-.24-.05-.48-.08-.71h0l3-3A13.39,13.39,0,0,1,46.7,34.41Z"/><path class="cls-2" d="M60.65,12.66v11H57V18.9l-4.81,4.81-2.69,2.7L45.94,30l-3,3h0l-6.77,6.76-5.6-5.6-5.45,5.43a9.6,9.6,0,0,1-1.37-3.77L30.57,29l5.6,5.6,5.35-5.35h0l2.63-2.63L54.41,16.32H49.69V12.66Z"/></svg>