<svg id="Capa_1" data-name="Capa 1" xmlns="http://www.w3.org/2000/svg" viewBox="0 0 80 80"><defs><style>.cls-1{fill:#e6007e;stroke:#e6007e;}.cls-1,.cls-2{stroke-miterlimit:10;stroke-width:0.75px;}.cls-2,.cls-3{fill:#390099;}.cls-2{stroke:#390099;}</style></defs><path class="cls-1" d="M67.47,32.26H54.18a6.67,6.67,0,0,0-6.65,6.65V68.14a6.65,6.65,0,0,0,6.65,6.64H67.47a6.64,6.64,0,0,0,6.64-6.64V38.91A6.66,6.66,0,0,0,67.47,32.26Zm4,35.88a4,4,0,0,1-4,4H54.18a4,4,0,0,1-4-4V38.91a4,4,0,0,1,4-4H67.47a4,4,0,0,1,4,4Z"/><rect class="cls-1" x="52.85" y="37.58" width="15.95" height="2.66" rx="1.33"/><rect class="cls-1" x="59.49" y="66.81" width="2.66" height="2.66" rx="1.33"/><path class="cls-2" d="M62.15,11H14.31a4,4,0,0,0-4,4V46.88a4,4,0,0,0,4,4H44.88V48.21H14.31A1.34,1.34,0,0,1,13,46.88V15a1.33,1.33,0,0,1,1.33-1.33H62.15A1.32,1.32,0,0,1,63.48,15V29.6h2.66V15A4,4,0,0,0,62.15,11Z"/><rect class="cls-2" x="23.45" y="53.52" width="10.96" height="2.66" transform="translate(-31.3 69.61) rotate(-75.95)"/><rect class="cls-2" x="23.62" y="58.84" width="21.26" height="2.66"/><rect class="cls-2" x="11.66" y="40.23" width="33.22" height="2.66"/><path class="cls-2" d="M17,16.32a1.33,1.33,0,0,0-1.33,1.32V23H18.3V19h4V16.32Z"/><rect class="cls-2" x="15.64" y="25.62" width="2.66" height="2.66"/><path class="cls-3" d="M59.49,16.32H54.18V19h4v4h2.65V17.64A1.32,1.32,0,0,0,59.49,16.32Z"/><rect class="cls-3" x="58.17" y="25.62" width="2.66" height="2.66"/></svg>