<svg xmlns="http://www.w3.org/2000/svg" viewBox="0 0 1151.52 336.82"><defs><style>.cls-1{fill:#e6007e;}.cls-2,.cls-3{fill:#390099;}.cls-3{font-size:59.53px;font-family:UniSansSemiBold, Uni Sans;}.cls-4{letter-spacing:-0.02em;}.cls-5{letter-spacing:-0.03em;}.cls-6{letter-spacing:-0.02em;}</style></defs><g id="Capa_2" data-name="Capa 2"><g id="Capa_1-2" data-name="Capa 1"><path class="cls-1" d="M225.14,182.56l0,2.24c.23,37.65-28.32,68.36-63.79,68.58l-50.87.32a3.51,3.51,0,0,0-2.68,1.27L91.19,275.15,53.84,320.49c-4.68,5.68-13.5,2.19-13.55-5.36l-.5-78.8h0L39.1,119a3.5,3.5,0,0,1,3.47-3.52h0l117.93-.68C196,114.57,224.9,144.91,225.14,182.56Z"/><path class="cls-2" d="M213.58,157.36a80.42,80.42,0,0,0-80.75-79.82h-.08L19.6,78.25A19.75,19.75,0,0,0,0,98.11L.89,238l0,3,.36,57.5A18.6,18.6,0,0,0,20,317h0a18.5,18.5,0,0,0,13.8-6.38L95,240.38l38.75-.25A80.32,80.32,0,0,0,213.6,159.3ZM26.19,102.65,132.9,102H133a55.89,55.89,0,0,1,56.2,55.54v1.94a56,56,0,0,1-55.55,56.25L84.1,216,25.62,284.13l-.4-64.75,0-3-.7-112A1.72,1.72,0,0,1,26.19,102.65Z"/><path class="cls-2" d="M274.32,244.56a33.67,33.67,0,0,1-8.18.93q-16,0-16-13.39V2.6A45.43,45.43,0,0,1,255.91.93a34.45,34.45,0,0,1,8-.93q16,0,16,13.39v229.5A45.89,45.89,0,0,1,274.32,244.56Z"/><path class="cls-2" d="M312.72,69.56a44,44,0,0,1,5.76-1.68,36.69,36.69,0,0,1,8.37-.93q15.63,0,15.63,13.77v95.59q0,24.18,12.64,34.4t35,10.23q14.87,0,25.29-3.16a84,84,0,0,0,16.37-6.51V69.56a43.49,43.49,0,0,1,5.76-1.68,34.94,34.94,0,0,1,8-.93q16,0,16,13.77V210.16q0,7.8-2,12.46t-9.86,9.11Q441,236.58,426,241t-36.27,4.46q-37.18,0-57.09-16.36t-19.9-51.33Z"/><path class="cls-2" d="M619.22,194.91q0,23.81-17.48,37.19t-50.59,13.39a131.09,131.09,0,0,1-26-2.42,90.73,90.73,0,0,1-20.27-6.32,41.25,41.25,0,0,1-13-8.93q-4.65-5-4.65-10.22a16.61,16.61,0,0,1,2.42-8.56,21,21,0,0,1,7.26-7.07,115.91,115.91,0,0,0,23.43,13.21q13.4,5.77,30.5,5.76,38.69,0,38.68-26,0-21.21-25.66-27.53l-30.88-8.18q-22.68-6-33.1-17.3t-10.41-29.2a46,46,0,0,1,3.9-18.59A41.69,41.69,0,0,1,505.4,78.48a61.62,61.62,0,0,1,20.27-10.6Q537.76,64,554.13,64q26,0,42,7.62t16,17.67a15.36,15.36,0,0,1-2.41,8.56,15.07,15.07,0,0,1-6.52,5.58,119.57,119.57,0,0,0-19-9.68q-12.28-5.2-29-5.2t-26.59,6.32q-9.87,6.33-9.86,17.85a20.41,20.41,0,0,0,5.58,14.51q5.58,6,18.6,8.93l25.66,6.32q25.29,6.33,37.94,18.78T619.22,194.91Z"/><path class="cls-1" d="M758,101.17q-11.73-9.66-31.44-9.67a85.87,85.87,0,0,0-26.4,3.72,98,98,0,0,0-19.72,8.56V242.89a45.89,45.89,0,0,1-5.58,1.67,33.67,33.67,0,0,1-8.18.93q-16,0-16-13.39V105.26q0-7.8,3.16-12.83t11-9.86q9.67-5.94,25.67-10.78A124.55,124.55,0,0,1,726.57,67Q760.43,67,780,82.2t19.53,48V242.89a44.53,44.53,0,0,1-5.77,1.67,34.37,34.37,0,0,1-8,.93q-16,0-16-13.39V131.67Q769.72,110.85,758,101.17Z"/><path class="cls-1" d="M863.51,179.2q15.82,47.18,69.36,40.68a73.56,73.56,0,0,0,27.44-8.56q11.93-6.69,18.6-13.49,9.5,4.09,10.56,13,.63,5.18-3.41,10.52a41.67,41.67,0,0,1-11.52,10,86.69,86.69,0,0,1-17.75,8.14,110.61,110.61,0,0,1-22.44,5q-42.84,5.19-70.58-15.06t-33.15-64.92q-2.55-21,1.56-38.22a81,81,0,0,1,13.61-29.94A73.72,73.72,0,0,1,869.7,75.6a87.91,87.91,0,0,1,32.12-10.07,83.38,83.38,0,0,1,31.32,1.83,70.77,70.77,0,0,1,26.09,12.77A73.4,73.4,0,0,1,978,102.21,79.79,79.79,0,0,1,987.43,132q1,8.11-2.29,12.08t-9.82,5.49Zm40.85-89.62Q881.83,92.31,869,109.79t-10.08,46.74l99.84-26.32q-4.31-20.09-18.26-31.7T904.36,89.58Z"/><path class="cls-1" d="M1112.15,219.07a25,25,0,0,0-4.09-5.57,58.62,58.62,0,0,1-13,5.2,51.92,51.92,0,0,1-14.13,2.24q-15.26,0-23.62-6.14t-8.37-21V97.07h24.76c6.09,0,9.63-5.13,9.63-11.22l-.84-13.42-33.55.1V29.75q0-13.38-15.63-13.39a36.54,36.54,0,0,0-8.36.93,45.69,45.69,0,0,0-5.77,1.67V195.65q0,26.78,16.18,38.31t42.22,11.53q17.1,0,26.78-5.21t9.67-13.39A15.87,15.87,0,0,0,1112.15,219.07Z"/><text class="cls-3" transform="translate(116.06 321.88)">PUBLICI<tspan class="cls-4" x="209.95" y="0">D</tspan><tspan x="246.8" y="0">AD EN GOOGLE</tspan><tspan class="cls-5" x="640.68" y="0" xml:space="preserve"> Y</tspan><tspan x="684.37" y="0" xml:space="preserve"> DISEÑO</tspan><tspan class="cls-6" x="898.49" y="0"> </tspan><tspan x="908.91" y="0">WEB</tspan></text></g></g></svg>