<svg xmlns="http://www.w3.org/2000/svg" viewBox="0 0 1113.27 321.82"><defs><style>.cls-1{fill:#e6007e;}.cls-2{fill:#390099;}</style></defs><g id="Capa_2" data-name="Capa 2"><g id="Capa_1-2" data-name="Capa 1"><path class="cls-1" d="M223.66,181.07v2.24c.24,37.66-28.32,68.36-63.78,68.58l-52.51.33L89.71,273.67,52.36,319c-4.69,5.69-13.51,2.2-13.55-5.35l-.5-78.8h0l-.69-110c0-6,4.49-10.83,10.11-10.86L159,113.3C194.48,113.08,223.42,143.42,223.66,181.07Z"/><path class="cls-2" d="M213.58,155.88a80.41,80.41,0,0,0-80.75-79.82h-.08L19.6,76.77A19.74,19.74,0,0,0,0,96.62L.89,236.49l0,3L1.29,297A18.64,18.64,0,0,0,20,315.55h0a18.51,18.51,0,0,0,13.8-6.39L95,238.89l38.75-.24a80.34,80.34,0,0,0,79.83-80.83ZM26.19,101.16l106.71-.67H133A55.89,55.89,0,0,1,189.16,156V158a56,56,0,0,1-55.55,56.25l-49.52.31L25.62,282.65l-.4-64.75,0-3-.7-112A1.73,1.73,0,0,1,26.19,101.16Z"/><path class="cls-2" d="M273.58,244.56a33.73,33.73,0,0,1-8.18.93q-16,0-16-13.39V2.6A46.21,46.21,0,0,1,255.17.93a34.39,34.39,0,0,1,8-.93q16,0,16,13.39v229.5A45.89,45.89,0,0,1,273.58,244.56Z"/><path class="cls-2" d="M312,69.56a43.49,43.49,0,0,1,5.76-1.68,36.69,36.69,0,0,1,8.37-.93q15.63,0,15.62,13.77v95.59q0,24.18,12.65,34.4t35,10.23q14.88,0,25.3-3.16A83.89,83.89,0,0,0,431,211.27V69.56a44.22,44.22,0,0,1,5.77-1.68,34.87,34.87,0,0,1,8-.93q16,0,16,13.77V210.16q0,7.8-2.05,12.46t-9.85,9.11q-8.57,4.85-23.62,9.3T389,245.49q-37.2,0-57.09-16.36T312,177.8Z"/><path class="cls-2" d="M618.48,194.91q0,23.81-17.48,37.19t-50.59,13.39a131.09,131.09,0,0,1-26-2.42,90.56,90.56,0,0,1-20.27-6.32,41.25,41.25,0,0,1-13-8.93q-4.65-5-4.65-10.22a16.51,16.51,0,0,1,2.42-8.56A21,21,0,0,1,496.1,202a116.27,116.27,0,0,0,23.44,13.21q13.38,5.77,30.5,5.76,38.67,0,38.68-26,0-21.21-25.66-27.53l-30.88-8.18q-22.69-6-33.1-17.3t-10.42-29.2a46,46,0,0,1,3.91-18.59,41.58,41.58,0,0,1,12.09-15.63,61.62,61.62,0,0,1,20.27-10.6Q537,64,553.38,64q26,0,42,7.62t16,17.67A15.36,15.36,0,0,1,609,97.83a15,15,0,0,1-6.51,5.58,119.3,119.3,0,0,0-19-9.68q-12.27-5.2-29-5.2t-26.6,6.32q-9.85,6.33-9.85,17.85a20.41,20.41,0,0,0,5.58,14.51q5.58,6,18.6,8.93l25.66,6.32q25.29,6.33,37.94,18.78T618.48,194.91Z"/><path class="cls-1" d="M757.26,101.17q-11.71-9.66-31.43-9.67a86,86,0,0,0-26.41,3.72,98.15,98.15,0,0,0-19.71,8.56V242.89a45.89,45.89,0,0,1-5.58,1.67,33.73,33.73,0,0,1-8.18.93q-16,0-16-13.39V105.26q0-7.8,3.17-12.83t11-9.86q9.66-5.94,25.66-10.78A124.67,124.67,0,0,1,725.83,67q33.84,0,53.38,15.25t19.53,48V242.89a44.53,44.53,0,0,1-5.77,1.67,34.39,34.39,0,0,1-8,.93q-16,0-16-13.39V131.67Q769,110.85,757.26,101.17Z"/><path class="cls-1" d="M862.76,179.2q15.82,47.18,69.37,40.68a73.56,73.56,0,0,0,27.44-8.56q11.92-6.69,18.6-13.49,9.48,4.09,10.56,13,.63,5.18-3.41,10.52a41.58,41.58,0,0,1-11.53,10,86.6,86.6,0,0,1-17.74,8.14,110.61,110.61,0,0,1-22.44,5q-42.84,5.19-70.58-15.06t-33.15-64.92q-2.55-21,1.55-38.22a81,81,0,0,1,13.62-29.94A73.72,73.72,0,0,1,869,75.6a87.79,87.79,0,0,1,32.12-10.07,83.38,83.38,0,0,1,31.32,1.83,70.84,70.84,0,0,1,26.09,12.77,73.54,73.54,0,0,1,18.78,22.08A79.6,79.6,0,0,1,986.68,132c.66,5.41-.11,9.44-2.28,12.08s-5.46,4.47-9.83,5.49Zm40.86-89.62q-22.53,2.73-35.4,20.21t-10.08,46.74L958,130.21q-4.31-20.09-18.26-31.7T903.62,89.58Z"/><path class="cls-1" d="M1111.41,219.07a25.27,25.27,0,0,0-4.09-5.57,58.62,58.62,0,0,1-13,5.2,51.92,51.92,0,0,1-14.14,2.24q-15.26,0-23.61-6.14t-8.37-21V97.07h24.76c6.09,0,9.62-5.13,9.62-11.22l-.83-13.42-33.55.1V29.75q0-13.38-15.63-13.39a36.54,36.54,0,0,0-8.36.93,46.48,46.48,0,0,0-5.78,1.67V195.65q0,26.78,16.18,38.31t42.23,11.53q17.1,0,26.78-5.21t9.67-13.39A15.87,15.87,0,0,0,1111.41,219.07Z"/></g></g></svg>